<?xml version="1.0" encoding="UTF-8" standalone="no"?><!DOCTYPE svg PUBLIC "-//W3C//DTD SVG 1.1//EN" "http://www.w3.org/Graphics/SVG/1.1/DTD/svg11.dtd"><svg width="100%" height="100%" viewBox="0 0 208 208" version="1.1" xmlns="http://www.w3.org/2000/svg" xmlns:xlink="http://www.w3.org/1999/xlink" xml:space="preserve" xmlns:serif="http://www.serif.com/" style="fill-rule:evenodd;clip-rule:evenodd;"><g id="Diffuser"><path id="Diffuser-Wall" serif:id="Diffuser Wall" d="M11.48,93.109L11.48,20.712C11.731,20.735 11.985,20.746 12.242,20.746C12.829,20.746 13.402,20.686 13.956,20.573C14.509,20.46 15.043,20.293 15.552,20.078C16.061,19.862 16.544,19.599 16.997,19.294C17.449,18.988 17.87,18.64 18.255,18.255C18.64,17.87 18.988,17.449 19.294,16.997C19.599,16.544 19.862,16.061 20.078,15.552C20.293,15.043 20.46,14.509 20.573,13.956C20.686,13.402 20.746,12.829 20.746,12.242C20.746,11.986 20.734,11.732 20.712,11.481C20.712,11.481 67.447,11.481 75.393,11.481C76.024,11.481 76.535,10.97 76.535,10.339C76.535,8.166 76.535,3.458 76.535,1.284C76.535,0.653 76.024,0.142 75.393,0.142L4.942,0.142L4.442,0.242L4.042,0.342L2.442,1.142L2.142,1.442L1.742,1.742L1.442,2.042L1.242,2.442L0.942,2.842L0.542,3.642L0.442,4.042L0.242,4.442L0.142,4.842L0.142,202.642L0.242,203.142L0.442,203.542L0.542,203.942L0.942,204.742L1.242,205.142L1.442,205.442L1.742,205.842L2.142,206.142L2.442,206.342L2.842,206.642L3.642,207.042L4.042,207.142L4.442,207.342L4.942,207.342L5.342,207.442L202.242,207.442L202.642,207.342L203.142,207.342L203.542,207.142L203.942,207.042L204.742,206.642L205.142,206.342L205.442,206.142L205.842,205.842L206.142,205.442L206.442,205.142L207.242,203.542L207.342,203.142L207.442,202.642L207.442,4.842L207.242,4.042L206.442,2.442L206.142,2.042L205.842,1.742L205.442,1.442L205.142,1.142L203.542,0.342L203.142,0.242L202.642,0.142C202.642,0.142 168.785,0.142 162.717,0.142C162.086,0.142 161.575,0.653 161.575,1.284C161.575,3.458 161.575,8.166 161.575,10.339C161.575,10.97 162.086,11.481 162.717,11.481L186.872,11.481C186.849,11.732 186.838,11.986 186.838,12.242C186.838,12.829 186.898,13.402 187.011,13.956C187.124,14.509 187.291,15.043 187.506,15.552C187.722,16.061 187.985,16.544 188.29,16.997C188.596,17.449 188.944,17.87 189.329,18.255C189.714,18.64 190.135,18.988 190.587,19.294C191.04,19.599 191.523,19.862 192.032,20.078C192.541,20.293 193.075,20.46 193.628,20.573C194.182,20.686 194.755,20.746 195.342,20.746C195.598,20.746 195.852,20.735 196.103,20.712L196.103,105.324C196.09,105.751 195.884,106.158 195.526,106.461C195.156,106.773 194.654,106.949 194.131,106.949C175.581,106.949 32.003,106.947 13.452,106.946C12.363,106.946 11.48,106.2 11.48,105.279L11.48,93.109" style="fill:none;stroke:black;stroke-width:0.03px;"/><g id="Standoff-Holes" serif:id="Standoff Holes"><g transform="matrix(1.01772,0,0,1.01772,-46.9358,-94.4839)"><circle cx="58.147" cy="104.868" r="4.456" style="fill:none;stroke:black;stroke-width:0.03px;stroke-linecap:round;stroke-linejoin:round;stroke-miterlimit:1.5;"/></g><g transform="matrix(1.01772,0,0,1.01772,136.164,-94.4839)"><circle cx="58.147" cy="104.868" r="4.456" style="fill:none;stroke:black;stroke-width:0.03px;stroke-linecap:round;stroke-linejoin:round;stroke-miterlimit:1.5;"/></g><g transform="matrix(1.01772,0,0,1.01772,-46.9358,88.6161)"><circle cx="58.147" cy="104.868" r="4.456" style="fill:none;stroke:black;stroke-width:0.03px;stroke-linecap:round;stroke-linejoin:round;stroke-miterlimit:1.5;"/></g><g transform="matrix(1.01772,0,0,1.01772,136.164,88.6161)"><circle cx="58.147" cy="104.868" r="4.456" style="fill:none;stroke:black;stroke-width:0.03px;stroke-linecap:round;stroke-linejoin:round;stroke-miterlimit:1.5;"/></g></g></g></svg>