<?xml version="1.0" encoding="UTF-8" standalone="no"?><!DOCTYPE svg PUBLIC "-//W3C//DTD SVG 1.1//EN" "http://www.w3.org/Graphics/SVG/1.1/DTD/svg11.dtd"><svg width="100%" height="100%" viewBox="0 0 208 208" version="1.1" xmlns="http://www.w3.org/2000/svg" xmlns:xlink="http://www.w3.org/1999/xlink" xml:space="preserve" xmlns:serif="http://www.serif.com/" style="fill-rule:evenodd;clip-rule:evenodd;stroke-linecap:round;stroke-linejoin:round;stroke-miterlimit:1.5;"><g id="Bottom-Plate" serif:id="Bottom Plate"><g id="Outer-Wall" serif:id="Outer Wall" transform="matrix(8.28741,0,0,10.6764,-124.802,-429.031)"><path d="M40.09,40.729C40.09,40.436 39.784,40.198 39.406,40.198L15.76,40.198C15.383,40.198 15.076,40.436 15.076,40.729L15.076,59.084C15.076,59.377 15.383,59.615 15.76,59.615L39.406,59.615C39.784,59.615 40.09,59.377 40.09,59.084L40.09,40.729Z" style="fill:none;"/></g><g id="Screw-Holes" serif:id="Screw Holes"><g transform="matrix(-0.914402,0,0,0.914402,12.2417,15.0768)"><circle cx="0" cy="-3.1" r="3.1" style="fill:none;stroke:black;stroke-width:0.03px;stroke-linecap:butt;stroke-linejoin:miter;stroke-miterlimit:4;"/></g><g transform="matrix(-0.914402,0,0,0.914402,195.342,198.177)"><circle cx="0" cy="-3.1" r="3.1" style="fill:none;stroke:black;stroke-width:0.03px;stroke-linecap:butt;stroke-linejoin:miter;stroke-miterlimit:4;"/></g><g transform="matrix(-0.914402,0,0,0.914402,195.342,15.0768)"><circle cx="0" cy="-3.1" r="3.1" style="fill:none;stroke:black;stroke-width:0.03px;stroke-linecap:butt;stroke-linejoin:miter;stroke-miterlimit:4;"/></g><g transform="matrix(-0.914402,0,0,0.914402,12.2417,198.177)"><circle cx="0" cy="-3.1" r="3.1" style="fill:none;stroke:black;stroke-width:0.03px;stroke-linecap:butt;stroke-linejoin:miter;stroke-miterlimit:4;"/></g></g></g></svg>