<?xml version="1.0" encoding="UTF-8" standalone="no"?><!DOCTYPE svg PUBLIC "-//W3C//DTD SVG 1.1//EN" "http://www.w3.org/Graphics/SVG/1.1/DTD/svg11.dtd"><svg width="208px" height="208px" version="1.1" xmlns="http://www.w3.org/2000/svg" xmlns:xlink="http://www.w3.org/1999/xlink" xml:space="preserve" xmlns:serif="http://www.serif.com/" style="fill-rule:evenodd;clip-rule:evenodd;"><g id="MX-Plate-HPO" serif:id="MX Plate HPO"><g id="Outer-Wall" serif:id="Outer Wall" transform="matrix(1,0,0,1,201.842,207.442)"><path d="M0,-207.3L0.8,-207.3L1.3,-207.2L1.7,-207.1L3.3,-206.3L3.6,-206L4,-205.7L4.3,-205.4L4.6,-205L5.4,-203.4L5.6,-202.6L5.6,-4.8L5.5,-4.3L5.4,-3.9L5.2,-3.5L5,-3.1L4.8,-2.7L4.6,-2.3L4.3,-2L4,-1.6L3.6,-1.3L3.3,-1.1L2.9,-0.8L2.5,-0.6L2.1,-0.4L1.7,-0.3L1.3,-0.1L0.8,-0.1L0.4,0L0,0L-196.1,0L-196.5,0L-196.9,-0.1L-197.4,-0.1L-197.8,-0.3L-198.2,-0.4L-198.6,-0.6L-199,-0.8L-199.4,-1.1L-199.7,-1.3L-200.1,-1.6L-200.4,-2L-200.6,-2.3L-200.9,-2.7L-201.1,-3.1L-201.3,-3.5L-201.4,-3.9L-201.6,-4.3L-201.7,-4.8L-201.7,-5.2L-201.7,-5.7L-201.7,-201.7L-201.7,-202.1L-201.7,-202.6L-201.6,-203L-201.4,-203.4L-201.3,-203.8L-201.1,-204.2L-200.9,-204.6L-200.6,-205L-200.4,-205.4L-200.1,-205.7L-199.7,-206L-199.4,-206.3L-199,-206.5L-198.6,-206.7L-198.2,-206.9L-197.8,-207.1L-197.4,-207.2L-196.9,-207.3L0,-207.3Z" style="fill:none;fill-rule:nonzero;stroke:rgb(0,0,255);stroke-width:0.03px;"/></g><g id="Switch-Cutouts" serif:id="Switch Cutouts"><g transform="matrix(0.896145,0,0,1,32.0032,69.6422)"><path d="M0,-39.7L-0.6,-39.7C-1.5,-39.7 -2.3,-38.9 -2.3,-38L-2.3,-1.7C-2.3,-0.8 -1.5,0 -0.6,0L40.3,0C41.2,0 42,-0.8 42,-1.7L42,-38C42,-38.9 41.2,-39.7 40.3,-39.7L39.7,-39.7L0,-39.7Z" style="fill:none;fill-rule:nonzero;stroke:rgb(0,0,255);stroke-width:0.03px;"/></g><g transform="matrix(0.896145,0,0,1,32.0032,123.642)"><path d="M0,-39.7L-0.6,-39.7C-1.5,-39.7 -2.3,-38.9 -2.3,-38L-2.3,-1.7C-2.3,-0.8 -1.5,0 -0.6,0L40.3,0C41.2,0 42,-0.8 42,-1.7L42,-38C42,-38.9 41.2,-39.7 40.3,-39.7L39.7,-39.7L0,-39.7Z" style="fill:none;fill-rule:nonzero;stroke:rgb(0,0,255);stroke-width:0.03px;"/></g><g transform="matrix(0.896145,0,0,1,32.0032,177.642)"><path d="M0,-39.7L-0.6,-39.7C-1.5,-39.7 -2.3,-38.9 -2.3,-38L-2.3,-1.7C-2.3,-0.8 -1.5,0 -0.6,0L40.3,0C41.2,0 42,-0.8 42,-1.7L42,-38C42,-38.9 41.2,-39.7 40.3,-39.7L39.7,-39.7L0,-39.7Z" style="fill:none;fill-rule:nonzero;stroke:rgb(0,0,255);stroke-width:0.03px;"/></g><g transform="matrix(0.896145,0,0,1,86.0032,69.6422)"><path d="M0,-39.7L-0.6,-39.7C-1.5,-39.7 -2.3,-38.9 -2.3,-38L-2.3,-1.7C-2.3,-0.8 -1.5,0 -0.6,0L40.3,0C41.2,0 42,-0.8 42,-1.7L42,-38C42,-38.9 41.2,-39.7 40.3,-39.7L39.7,-39.7L0,-39.7Z" style="fill:none;fill-rule:nonzero;stroke:rgb(0,0,255);stroke-width:0.03px;"/></g><g transform="matrix(0.896145,0,0,1,86.0032,123.642)"><path d="M0,-39.7L-0.6,-39.7C-1.5,-39.7 -2.3,-38.9 -2.3,-38L-2.3,-1.7C-2.3,-0.8 -1.5,0 -0.6,0L40.3,0C41.2,0 42,-0.8 42,-1.7L42,-38C42,-38.9 41.2,-39.7 40.3,-39.7L39.7,-39.7L0,-39.7Z" style="fill:none;fill-rule:nonzero;stroke:rgb(0,0,255);stroke-width:0.03px;"/></g><g transform="matrix(0.896145,0,0,1,86.0032,177.642)"><path d="M0,-39.7L-0.6,-39.7C-1.5,-39.7 -2.3,-38.9 -2.3,-38L-2.3,-1.7C-2.3,-0.8 -1.5,0 -0.6,0L40.3,0C41.2,0 42,-0.8 42,-1.7L42,-38C42,-38.9 41.2,-39.7 40.3,-39.7L39.7,-39.7L0,-39.7Z" style="fill:none;fill-rule:nonzero;stroke:rgb(0,0,255);stroke-width:0.03px;"/></g><g transform="matrix(0.896145,0,0,1,140.003,69.6422)"><path d="M0,-39.7L-0.6,-39.7C-1.5,-39.7 -2.3,-38.9 -2.3,-38L-2.3,-1.7C-2.3,-0.8 -1.5,0 -0.6,0L40.3,0C41.2,0 42,-0.8 42,-1.7L42,-38C42,-38.9 41.2,-39.7 40.3,-39.7L39.7,-39.7L0,-39.7Z" style="fill:none;fill-rule:nonzero;stroke:rgb(0,0,255);stroke-width:0.03px;"/></g><g transform="matrix(0.896145,0,0,1,140.003,123.642)"><path d="M0,-39.7L-0.6,-39.7C-1.5,-39.7 -2.3,-38.9 -2.3,-38L-2.3,-1.7C-2.3,-0.8 -1.5,0 -0.6,0L40.3,0C41.2,0 42,-0.8 42,-1.7L42,-38C42,-38.9 41.2,-39.7 40.3,-39.7L39.7,-39.7L0,-39.7Z" style="fill:none;fill-rule:nonzero;stroke:rgb(0,0,255);stroke-width:0.03px;"/></g><g transform="matrix(0.896145,0,0,1,140.003,177.642)"><path d="M0,-39.7L-0.6,-39.7C-1.5,-39.7 -2.3,-38.9 -2.3,-38L-2.3,-1.7C-2.3,-0.8 -1.5,0 -0.6,0L40.3,0C41.2,0 42,-0.8 42,-1.7L42,-38C42,-38.9 41.2,-39.7 40.3,-39.7L39.7,-39.7L0,-39.7Z" style="fill:none;fill-rule:nonzero;stroke:rgb(0,0,255);stroke-width:0.03px;"/></g></g><g id="Standoff-Holes" serif:id="Standoff Holes"><g transform="matrix(1.01772,0,0,1.01772,-46.9358,-94.4839)"><circle cx="58.147" cy="104.868" r="4.456" style="fill:none;stroke:rgb(0,0,255);stroke-width:0.03px;stroke-linecap:round;stroke-linejoin:round;stroke-miterlimit:1.5;"/></g><g transform="matrix(1.01772,0,0,1.01772,136.164,-94.4839)"><circle cx="58.147" cy="104.868" r="4.456" style="fill:none;stroke:rgb(0,0,255);stroke-width:0.03px;stroke-linecap:round;stroke-linejoin:round;stroke-miterlimit:1.5;"/></g><g transform="matrix(1.01772,0,0,1.01772,-46.9358,88.6161)"><circle cx="58.147" cy="104.868" r="4.456" style="fill:none;stroke:rgb(0,0,255);stroke-width:0.03px;stroke-linecap:round;stroke-linejoin:round;stroke-miterlimit:1.5;"/></g><g transform="matrix(1.01772,0,0,1.01772,136.164,88.6161)"><circle cx="58.147" cy="104.868" r="4.456" style="fill:none;stroke:rgb(0,0,255);stroke-width:0.03px;stroke-linecap:round;stroke-linejoin:round;stroke-miterlimit:1.5;"/></g></g></g></svg>