<?xml version="1.0" encoding="UTF-8" standalone="no"?><!DOCTYPE svg PUBLIC "-//W3C//DTD SVG 1.1//EN" "http://www.w3.org/Graphics/SVG/1.1/DTD/svg11.dtd"><svg width="100%" height="100%" viewBox="0 0 208 208" version="1.1" xmlns="http://www.w3.org/2000/svg" xmlns:xlink="http://www.w3.org/1999/xlink" xml:space="preserve" xmlns:serif="http://www.serif.com/" style="fill-rule:evenodd;clip-rule:evenodd;stroke-linecap:round;stroke-linejoin:round;stroke-miterlimit:1.5;"><g id="Thick-Mid" serif:id="Thick Mid"><g id="Outer-Wall" serif:id="Outer Wall" transform="matrix(8.28741,0,0,10.6764,-124.802,-429.031)"><path d="M40.09,40.729C40.09,40.436 39.784,40.198 39.406,40.198L15.76,40.198C15.383,40.198 15.076,40.436 15.076,40.729L15.076,59.084C15.076,59.377 15.383,59.615 15.76,59.615L39.406,59.615C39.784,59.615 40.09,59.377 40.09,59.084L40.09,40.729Z" style="fill:none;"/></g><path id="Inner-Wall" serif:id="Inner Wall" d="M186.872,11.481C186.849,11.732 186.838,11.986 186.838,12.242C186.838,12.829 186.898,13.402 187.011,13.956C187.124,14.509 187.291,15.043 187.506,15.552C187.722,16.061 187.985,16.544 188.29,16.997C188.596,17.449 188.944,17.87 189.329,18.255C189.714,18.64 190.135,18.988 190.587,19.294C191.04,19.599 191.523,19.862 192.032,20.078C192.541,20.293 193.075,20.46 193.628,20.573C194.182,20.686 194.755,20.746 195.342,20.746C195.598,20.746 195.852,20.735 196.103,20.712L196.103,186.872C195.852,186.85 195.598,186.838 195.342,186.838C194.755,186.838 194.182,186.897 193.628,187.011C193.075,187.124 192.541,187.291 192.032,187.506C191.523,187.721 191.04,187.985 190.587,188.29C190.135,188.596 189.714,188.944 189.329,189.329C188.944,189.713 188.596,190.135 188.29,190.587C187.985,191.04 187.722,191.523 187.506,192.032C187.291,192.541 187.124,193.075 187.011,193.628C186.898,194.182 186.838,194.755 186.838,195.342C186.838,195.599 186.849,195.852 186.871,196.103L20.712,196.103C20.734,195.852 20.746,195.599 20.746,195.342C20.746,194.755 20.686,194.182 20.573,193.628C20.46,193.075 20.293,192.541 20.078,192.032C19.862,191.523 19.599,191.04 19.294,190.587C18.988,190.135 18.64,189.713 18.255,189.329C17.87,188.944 17.449,188.596 16.997,188.29C16.544,187.985 16.061,187.721 15.552,187.506C15.043,187.291 14.509,187.124 13.956,187.011C13.402,186.897 12.829,186.838 12.242,186.838C11.985,186.838 11.731,186.85 11.48,186.872L11.48,20.712C11.731,20.735 11.985,20.746 12.242,20.746C12.829,20.746 13.402,20.686 13.956,20.573C14.509,20.46 15.043,20.293 15.552,20.078C16.061,19.862 16.544,19.599 16.997,19.294C17.449,18.988 17.87,18.64 18.255,18.255C18.64,17.87 18.988,17.449 19.294,16.997C19.599,16.544 19.862,16.061 20.078,15.552C20.293,15.043 20.46,14.509 20.573,13.956C20.686,13.402 20.746,12.829 20.746,12.242C20.746,11.986 20.734,11.732 20.712,11.481L186.872,11.481Z" style="fill:none;stroke:black;stroke-width:0.03px;stroke-linecap:butt;stroke-linejoin:miter;stroke-miterlimit:4;"/><g id="Standoff-Holes" serif:id="Standoff Holes"><g transform="matrix(1.01772,0,0,1.01772,-46.9358,-94.4839)"><circle cx="58.147" cy="104.868" r="4.456" style="fill:none;stroke:black;stroke-width:0.03px;"/></g><g transform="matrix(1.01772,0,0,1.01772,136.164,-94.4839)"><circle cx="58.147" cy="104.868" r="4.456" style="fill:none;stroke:black;stroke-width:0.03px;"/></g><g transform="matrix(1.01772,0,0,1.01772,-46.9358,88.6161)"><circle cx="58.147" cy="104.868" r="4.456" style="fill:none;stroke:black;stroke-width:0.03px;"/></g><g transform="matrix(1.01772,0,0,1.01772,136.164,88.6161)"><circle cx="58.147" cy="104.868" r="4.456" style="fill:none;stroke:black;stroke-width:0.03px;"/></g></g></g></svg>