<?xml version="1.0" encoding="UTF-8" standalone="no"?><!DOCTYPE svg PUBLIC "-//W3C//DTD SVG 1.1//EN" "http://www.w3.org/Graphics/SVG/1.1/DTD/svg11.dtd"><svg width="100%" height="100%" viewBox="0 0 208 208" version="1.1" xmlns="http://www.w3.org/2000/svg" xmlns:xlink="http://www.w3.org/1999/xlink" xml:space="preserve" xmlns:serif="http://www.serif.com/" style="fill-rule:evenodd;clip-rule:evenodd;"><g id="Cutout"><path id="Outer-Wall" serif:id="Outer Wall" d="M161.575,1.284C161.575,0.653 162.086,0.142 162.717,0.142C168.785,0.142 202.642,0.142 202.642,0.142L203.142,0.242L203.542,0.342L205.142,1.142L205.442,1.442L205.842,1.742L206.142,2.042L206.442,2.442L207.242,4.042L207.442,4.842L207.442,202.642L207.342,203.142L207.242,203.542L206.442,205.142L206.142,205.442L205.842,205.842L205.442,206.142L205.142,206.342L204.742,206.642L203.942,207.042L203.542,207.142L203.142,207.342L202.642,207.342L202.242,207.442L5.342,207.442L4.942,207.342L4.442,207.342L4.042,207.142L3.642,207.042L2.842,206.642L2.442,206.342L2.142,206.142L1.742,205.842L1.442,205.442L1.242,205.142L0.942,204.742L0.542,203.942L0.442,203.542L0.242,203.142L0.142,202.642L0.142,4.842L0.242,4.442L0.442,4.042L0.542,3.642L0.942,2.842L1.242,2.442L1.442,2.042L1.742,1.742L2.142,1.442L2.442,1.142L4.042,0.342L4.442,0.242L4.942,0.142L75.393,0.142C76.024,0.142 76.535,0.653 76.535,1.284C76.535,3.458 76.535,8.166 76.535,10.339C76.535,10.97 76.024,11.481 75.393,11.481C67.447,11.481 20.712,11.481 20.712,11.481C20.734,11.732 20.746,11.986 20.746,12.242C20.746,12.829 20.686,13.402 20.573,13.956C20.46,14.509 20.293,15.043 20.078,15.552C19.862,16.061 19.599,16.544 19.294,16.997C18.988,17.449 18.64,17.87 18.255,18.255C17.87,18.64 17.449,18.988 16.997,19.294C16.544,19.599 16.061,19.862 15.552,20.078C15.043,20.293 14.509,20.46 13.956,20.573C13.402,20.686 12.829,20.746 12.242,20.746C11.985,20.746 11.731,20.735 11.48,20.712L11.48,186.872C11.731,186.85 11.985,186.838 12.242,186.838C12.829,186.838 13.402,186.897 13.956,187.011C14.509,187.124 15.043,187.291 15.552,187.506C16.061,187.721 16.544,187.985 16.997,188.29C17.449,188.596 17.87,188.944 18.255,189.329C18.64,189.713 18.988,190.135 19.294,190.587C19.599,191.04 19.862,191.523 20.078,192.032C20.293,192.541 20.46,193.075 20.573,193.628C20.686,194.182 20.746,194.755 20.746,195.342C20.746,195.599 20.734,195.852 20.712,196.103L186.871,196.103C186.849,195.852 186.838,195.599 186.838,195.342C186.838,194.755 186.898,194.182 187.011,193.628C187.124,193.075 187.291,192.541 187.506,192.032C187.722,191.523 187.985,191.04 188.29,190.587C188.596,190.135 188.944,189.713 189.329,189.329C189.714,188.944 190.135,188.596 190.587,188.29C191.04,187.985 191.523,187.721 192.032,187.506C192.541,187.291 193.075,187.124 193.628,187.011C194.182,186.897 194.755,186.838 195.342,186.838C195.598,186.838 195.852,186.85 196.103,186.872L196.103,20.712C195.852,20.735 195.598,20.746 195.342,20.746C194.755,20.746 194.182,20.686 193.628,20.573C193.075,20.46 192.541,20.293 192.032,20.078C191.523,19.862 191.04,19.599 190.587,19.294C190.135,18.988 189.714,18.64 189.329,18.255C188.944,17.87 188.596,17.449 188.29,16.997C187.985,16.544 187.722,16.061 187.506,15.552C187.291,15.043 187.124,14.509 187.011,13.956C186.898,13.402 186.838,12.829 186.838,12.242C186.838,11.986 186.849,11.732 186.872,11.481L162.717,11.481C162.086,11.481 161.575,10.97 161.575,10.339C161.575,8.166 161.575,3.458 161.575,1.284Z" style="fill:none;fill-rule:nonzero;stroke:black;stroke-width:0.03px;"/><g id="Standoff-Holes" serif:id="Standoff Holes"><g transform="matrix(1.01772,0,0,1.01772,-46.9358,-94.4839)"><circle cx="58.147" cy="104.868" r="4.456" style="fill:none;stroke:black;stroke-width:0.03px;stroke-linecap:round;stroke-linejoin:round;stroke-miterlimit:1.5;"/></g><g transform="matrix(1.01772,0,0,1.01772,136.164,-94.4839)"><circle cx="58.147" cy="104.868" r="4.456" style="fill:none;stroke:black;stroke-width:0.03px;stroke-linecap:round;stroke-linejoin:round;stroke-miterlimit:1.5;"/></g><g transform="matrix(1.01772,0,0,1.01772,-46.9358,88.6161)"><circle cx="58.147" cy="104.868" r="4.456" style="fill:none;stroke:black;stroke-width:0.03px;stroke-linecap:round;stroke-linejoin:round;stroke-miterlimit:1.5;"/></g><g transform="matrix(1.01772,0,0,1.01772,136.164,88.6161)"><circle cx="58.147" cy="104.868" r="4.456" style="fill:none;stroke:black;stroke-width:0.03px;stroke-linecap:round;stroke-linejoin:round;stroke-miterlimit:1.5;"/></g></g></g></svg>